<?xml version="1.0" encoding="utf-8"?>
<!-- Generator: Adobe Illustrator 26.2.1, SVG Export Plug-In . SVG Version: 6.00 Build 0)  -->
<svg version="1.1" id="Layer_1" xmlns="http://www.w3.org/2000/svg" xmlns:xlink="http://www.w3.org/1999/xlink" x="0px" y="0px"
	 viewBox="0 0 2484.18 2918.84" style="enable-background:new 0 0 2484.18 2918.84;" xml:space="preserve">
<style type="text/css">
	.st0{fill:#EA0606;}
	.st1{opacity:0.35;}
	.st2{fill:#FFFFFF;}
	.st3{fill:#371A45;}
	.st4{opacity:0.3;}
	.st5{fill:#6B184E;}
	.st6{fill:#9E4F07;}
	.st7{fill:#59E200;}
	.st8{fill:#F79B14;}
	.st9{opacity:0.5;}
	.st10{opacity:0.2;}
	.st11{fill:#D66B09;}
	.st12{fill:#293856;}
	.st13{fill:#220F2D;}
	.st14{fill:#F9AF2B;}
	.st15{opacity:0.6;}
	.st16{fill:#000072;}
	.st17{fill:#EFB745;}
	.st18{fill:#FF1D58;}
	.st19{fill:#22A7F0;}
	.st20{opacity:0.7;}
	.st21{fill:#79819B;}
	.st22{fill:#806B8E;}
	.st23{fill:#FF71CC;}
	.st24{fill:#EB5463;}
	.st25{fill:#650000;}
	.st26{opacity:0.4;}
	.st27{fill:#D3A17F;}
	.st28{fill:#878787;}
	.st29{fill:#5B3737;}
	.st30{fill:#1389EA;}
	.st31{fill:#B2B2B2;}
	.st32{fill:#FEFAFB;}
	.st33{fill:#967660;}
	.st34{fill:#B74729;}
	.st35{fill:#FFCA9F;}
	.st36{fill:#F28475;}
	.st37{fill:#B17E4F;}
	.st38{fill:#F9D6B6;}
	.st39{fill:#EF4F4F;}
	.st40{fill:#FFC83E;}
	.st41{fill:#FC9E17;}
	.st42{opacity:0.15;}
	.st43{fill:#A3A3A3;}
	.st44{fill:#60605F;}
	.st45{fill:#232323;}
	.st46{opacity:0.45;}
	.st47{fill:#FF8D9B;}
	.st48{fill:#B8B4B1;}
	.st49{fill:#FFA1A8;}
	.st50{fill:#78DEF9;}
	.st51{fill:#51B7CE;}
	.st52{fill:#197AA5;}
	.st53{fill:#AFAFB2;}
	.st54{fill:#111A28;}
	.st55{fill:#21091D;}
	.st56{fill:#E0E0E0;}
	.st57{fill:#FFDA22;}
</style>
<g>
	<g>
		<g>
			<g>
				<path class="st2" d="M2191.61,1004.61l-14.6,0.03c-7.77,0.02-14.08-6.27-14.09-14.04l-0.94-444.29
					c-0.02-7.77,6.27-14.08,14.04-14.09l14.6-0.03c81.49-0.17,147.7,65.75,147.87,147.25l0.37,177.3
					C2339.03,938.24,2273.1,1004.44,2191.61,1004.61z"/>
				<path class="st3" d="M2176.97,1007.73c-4.57,0-8.86-1.77-12.09-5c-3.24-3.23-5.03-7.53-5.04-12.12l-0.94-444.28
					c-0.01-4.58,1.76-8.89,5-12.14c3.23-3.25,7.53-5.04,12.11-5.05l14.6-0.03c0.11,0,0.22,0,0.33,0c40.12,0,77.85,15.58,106.28,43.9
					c28.52,28.39,44.26,66.19,44.35,106.43l0.38,177.3c0.18,83.06-67.27,150.77-150.32,150.96l-14.6,0.03
					C2177,1007.73,2176.98,1007.73,2176.97,1007.73z M2190.93,535.28c-0.11,0-0.21,0-0.32,0l-14.6,0.03
					c-2.93,0.01-5.69,1.15-7.76,3.23s-3.2,4.84-3.2,7.77l0.94,444.28c0,2.93,1.15,5.69,3.23,7.76c2.07,2.07,4.82,3.2,7.75,3.2
					c0,0,0.01,0,0.02,0l14.6-0.03l0,0c38.59-0.08,74.84-15.19,102.07-42.53c27.23-27.35,42.18-63.66,42.1-102.25l-0.38-177.3
					c-0.08-38.59-15.19-74.84-42.53-102.08C2265.6,550.22,2229.41,535.28,2190.93,535.28z"/>
			</g>
			<g class="st1">
				<path class="st3" d="M2338.68,772.78l0.16,70.65c0.18,88.83-71.7,161.03-160.57,161.25c-8.47,0.03-15.34-6.87-15.37-15.34
					l-0.29-117.43c2.39,5.35,7.76,9.03,13.97,9.07l10.48-0.05C2257.28,880.79,2316.93,835.65,2338.68,772.78z"/>
			</g>
			<g>
				<path class="st3" d="M2176.97,1021.8c-8.32,0-16.13-3.23-22.03-9.1c-5.91-5.88-9.17-13.72-9.18-22.06l-0.94-444.28
					c-0.02-8.33,3.21-16.18,9.09-22.09c5.88-5.91,13.72-9.17,22.06-9.19l14.61-0.03c0.12,0,0.24,0,0.36,0
					c43.86,0,85.11,17.04,116.21,48c31.18,31.04,48.39,72.37,48.49,116.37l0.38,177.3c0.19,90.82-73.55,164.86-164.36,165.06
					l-14.6,0.03C2177.02,1021.8,2176.99,1021.8,2176.97,1021.8z M2179.13,549.37l0.93,438.11l11.51-0.02h0
					c71.9-0.15,130.28-58.77,130.13-130.68l-0.38-177.3c-0.07-34.83-13.71-67.55-38.39-92.13c-24.61-24.51-57.28-38-92-38
					c-0.1,0-0.19,0-0.29,0L2179.13,549.37z"/>
			</g>
			<g>
				<path class="st2" d="M705.85,535.33l14.6-0.03c7.77-0.02,14.08,6.27,14.09,14.04l0.94,444.29c0.02,7.77-6.27,14.08-14.04,14.09
					l-14.6,0.03c-81.49,0.17-147.7-65.75-147.87-147.25l-0.37-177.3C558.43,601.7,624.36,535.5,705.85,535.33z"/>
				<path class="st3" d="M706.54,1010.82c-82.92,0-150.46-67.37-150.64-150.32l-0.38-177.3c-0.18-83.06,67.26-150.78,150.33-150.96
					l0,0l14.6-0.03c0.01,0,0.02,0,0.04,0c9.43,0,17.12,7.67,17.14,17.11l0.93,444.28c0.01,4.58-1.76,8.89-5,12.14
					c-3.23,3.25-7.53,5.04-12.11,5.05l-14.6,0.03C706.75,1010.82,706.64,1010.82,706.54,1010.82z M705.86,538.41L705.86,538.41
					c-79.66,0.17-144.34,65.12-144.17,144.78l0.38,177.3c0.17,79.56,64.96,144.17,144.48,144.17c0.1,0,0.2,0,0.31,0l14.6-0.03
					c2.93,0,5.69-1.15,7.76-3.23c2.07-2.08,3.2-4.84,3.2-7.77l-0.93-444.28c-0.01-6.05-4.94-10.96-10.99-10.96c0,0-0.01,0-0.02,0
					L705.86,538.41z"/>
			</g>
			<g class="st1">
				<path class="st3" d="M735.26,869.8l0.24,122.55c0.03,8.47-6.87,15.34-15.34,15.37c-46.64,0.08-88.73-19.67-118.19-51.35
					c-26.61-28.61-42.91-66.99-43.01-109.18l-0.14-63.47c25.34,55.64,81.62,94.31,146.77,94.19l16.12-0.04
					C727.6,877.84,732.6,874.58,735.26,869.8z"/>
			</g>
			<g>
				<path class="st3" d="M706.54,1024.9c-90.67,0-164.52-73.66-164.71-164.37l-0.38-177.3c-0.19-90.82,73.54-164.87,164.37-165.06
					l0,0l14.6-0.03c0.02,0,0.05,0,0.07,0c17.17,0,31.17,13.96,31.22,31.15l0.93,444.29c0.02,8.33-3.21,16.18-9.09,22.09
					c-5.89,5.91-13.72,9.17-22.06,9.19l-14.59,0.03C706.77,1024.9,706.66,1024.9,706.54,1024.9z M705.89,552.48L705.89,552.48
					c-71.9,0.15-130.28,58.78-130.13,130.68l0.38,177.3c0.15,71.81,58.63,130.13,130.41,130.13c0.09,0,0.18,0,0.28,0l11.51-0.02
					l-0.92-438.11L705.89,552.48z"/>
			</g>
		</g>
		<g>
			<g>
				<path class="st50" d="M688.84,862.57l-18.71,127.53l-3.68,24.99c-2.77,19.08-20.54,32.3-39.63,29.49
					c-17.68-2.59-30.59-18.16-29.8-36.05l2.25-53.41l4.45-105.03L688.84,862.57z"/>
			</g>
			<g>
				<path class="st51" d="M688.84,862.57l-18.71,127.53c-30.57-3.66-54.01-18.84-70.86-34.98l4.45-105.03L688.84,862.57z"/>
			</g>
			<g>
				<path class="st52" d="M632.01,1062.1c-2.54,0-5.1-0.19-7.67-0.56c0,0,0,0,0,0c-26.49-3.88-45.61-26.98-44.48-53.73l6.7-158.42
					c0.21-4.85,2.46-9.39,6.2-12.49c3.74-3.1,8.61-4.46,13.43-3.76l85.11,12.48c9.37,1.37,15.85,10.09,14.48,19.46l-22.36,152.48
					c-2.02,13.76-9.28,25.92-20.44,34.23C653.92,1058.55,643.14,1062.1,632.01,1062.1z M629.33,1027.6
					c4.71,0.69,9.38-0.5,13.19-3.33c3.81-2.83,6.28-6.98,6.97-11.68l19.87-135.51l-49.32-7.23l-5.9,139.41
					C613.76,1018.39,620.28,1026.27,629.33,1027.6z"/>
			</g>
			<g>
				<path class="st50" d="M753.92,795.66c-8.15,55.59-47.11,140.42-114.15,130.59c-67.03-9.83-111.9-82.37-100.22-162.02
					c11.68-79.65,75.49-136.26,142.52-126.43S762.07,740.07,753.92,795.66z"/>
			</g>
			<g class="st9">
				<path class="st2" d="M755.23,745.13c-10.33-32.33-30.47-59.06-64.82-64.12c-67.05-9.8-130.88,46.78-142.52,126.43
					c-1.72,11.69-2.22,23.16-1.65,34.38c-8.01-23.46-10.72-50.13-6.68-77.61c11.64-79.65,75.46-136.27,142.52-126.43
					C731.08,644.95,751.19,696.3,755.23,745.13z"/>
			</g>
			<g>
				<path class="st51" d="M743.36,692.04c13.17,32.71,15.01,73.54,10.58,103.61c-8.18,55.61-47.12,140.42-114.17,130.62
					c-59.34-8.73-101.31-66.55-102.04-134.99c16.74,39.47,49.11,68.25,89.62,74.21c67.05,9.8,105.99-75.01,114.17-130.62
					C743.43,722.05,744.15,707.28,743.36,692.04z"/>
			</g>
			<g>
				<path class="st52" d="M650.6,944.2c-4.38,0-8.82-0.33-13.32-0.99c-76.28-11.19-127.73-92.6-114.7-181.48
					c6.24-42.52,26.15-80.56,56.09-107.11c30.77-27.29,68.36-39.29,105.89-33.8c80.11,11.75,95.47,115,86.33,177.32l0,0
					c-5.07,34.58-19.27,70.95-37.98,97.28C710.08,927.54,681.84,944.2,650.6,944.2z M666.88,653.84c-23.11,0-45.95,9.15-65.44,26.45
					c-23.9,21.2-39.85,51.89-44.91,86.43c-10.29,70.17,28.17,134.12,85.74,142.56c23.27,3.43,44.35-7.93,62.68-33.73
					c18.51-26.04,28.67-59.63,32-82.38c6.09-41.52,0.07-129.98-57.37-138.4C675.35,654.15,671.11,653.84,666.88,653.84z
					 M753.92,795.66h0.05H753.92z"/>
			</g>
		</g>
		<g>
			<g>
				<path class="st50" d="M2208.79,862.57l18.71,127.53l3.68,24.99c2.77,19.08,20.54,32.3,39.63,29.49
					c17.68-2.59,30.59-18.16,29.8-36.05l-2.25-53.41l-4.45-105.03L2208.79,862.57z"/>
			</g>
			<g>
				<path class="st51" d="M2208.79,862.57l18.71,127.53c30.57-3.66,54.01-18.84,70.86-34.98l-4.45-105.03L2208.79,862.57z"/>
			</g>
			<g>
				<path class="st52" d="M2265.62,1062.1c-11.12,0-21.9-3.55-30.99-10.31c-11.16-8.31-18.42-20.46-20.44-34.23l-22.36-152.48
					c-0.66-4.5,0.5-9.08,3.21-12.73s6.77-6.07,11.27-6.73l85.12-12.48c4.83-0.7,9.69,0.66,13.43,3.76c3.74,3.1,6,7.63,6.2,12.49
					l6.7,158.42c1.13,26.75-17.99,49.85-44.48,53.74l0,0C2270.72,1061.92,2268.16,1062.1,2265.62,1062.1z M2270.79,1044.57h0.05
					H2270.79z M2228.26,877.07l19.87,135.51c0.69,4.7,3.16,8.85,6.97,11.68c3.8,2.83,8.46,4.02,13.2,3.33
					c9.04-1.33,15.57-9.21,15.18-18.34l-5.9-139.41L2228.26,877.07z"/>
			</g>
			<g>
				<path class="st50" d="M2143.71,795.66c8.15,55.59,47.11,140.42,114.15,130.59c67.03-9.83,111.9-82.37,100.22-162.02
					c-11.68-79.65-75.49-136.26-142.52-126.43S2135.56,740.07,2143.71,795.66z"/>
			</g>
			<g class="st9">
				<path class="st2" d="M2142.4,745.13c10.33-32.33,30.47-59.06,64.82-64.12c67.05-9.8,130.88,46.78,142.52,126.43
					c1.72,11.69,2.22,23.16,1.65,34.38c8.01-23.46,10.72-50.13,6.68-77.61c-11.64-79.65-75.46-136.27-142.52-126.43
					C2166.55,644.95,2146.44,696.3,2142.4,745.13z"/>
			</g>
			<g>
				<path class="st51" d="M2154.27,692.04c-13.17,32.71-15.01,73.54-10.58,103.61c8.18,55.61,47.12,140.42,114.17,130.62
					c59.34-8.73,101.31-66.55,102.04-134.99c-16.74,39.47-49.11,68.25-89.62,74.21c-67.05,9.8-105.99-75.01-114.17-130.62
					C2154.2,722.05,2153.48,707.28,2154.27,692.04z"/>
			</g>
			<g>
				<path class="st52" d="M2247.03,944.2c-31.24,0-59.48-16.66-82.31-48.78c-18.72-26.33-32.92-62.69-37.98-97.28l0,0
					c-9.14-62.32,6.23-165.57,86.33-177.32c37.55-5.49,75.13,6.51,105.89,33.8c29.94,26.56,49.86,64.6,56.09,107.11
					c13.03,88.88-38.43,170.3-114.71,181.48C2255.85,943.87,2251.41,944.2,2247.03,944.2z M2160.68,793.17
					c3.33,22.75,13.49,56.34,32,82.38c18.33,25.79,39.39,37.15,62.68,33.73c57.57-8.44,96.03-72.39,85.74-142.56
					c-5.06-34.53-21.02-65.22-44.91-86.43c-23.07-20.46-50.84-29.53-78.14-25.52C2160.61,663.19,2154.6,751.64,2160.68,793.17
					L2160.68,793.17z"/>
			</g>
		</g>
		<g>
			<path class="st2" d="M1934.95,1497.49v750.45c0,18.95-2.32,37.35-6.65,55.02c-24.87,101.12-116.56,176.68-225.01,176.68h-697.66
				c-118.87,0-217.54-90.7-230.28-206.31c-0.94-8.32-1.42-16.81-1.42-25.39v-750.45c0-72.04,33.36-136.71,85.38-179.29
				c39.97-32.72,90.95-52.4,146.32-52.4h697.66c32.08,0,62.65,6.6,90.48,18.48c63.25,27.1,112.27,81.61,131.86,148.33
				C1931.69,1453.23,1934.95,1474.97,1934.95,1497.49z"/>
		</g>
		<g>
			<path class="st3" d="M1703.29,1265.81c127.42,0,231.67,104.25,231.67,231.67v750.46c0,127.42-104.25,231.67-231.67,231.67
				h-697.67c-127.42,0-231.67-104.25-231.67-231.67v-750.46c0-127.42,104.25-231.67,231.67-231.67H1703.29L1703.29,1265.81z
				 M1703.29,1231.51h-697.67c-146.66,0-265.98,119.32-265.98,265.98v750.46c0,146.66,119.32,265.98,265.98,265.98h697.67
				c146.66,0,265.98-119.32,265.98-265.98v-750.46C1969.27,1350.82,1849.95,1231.51,1703.29,1231.51L1703.29,1231.51z"/>
		</g>
		<g>
			<path class="st2" d="M1928.3,2302.95c-9.31,154.94-27.57,252.28-27.57,252.28H795.94c0,0-19.51-109.99-20.58-281.91
				c-0.3-45.03,0.69-94.3,3.6-146.92c11.41-205.37,52.36-462.28,163.34-719.44c10.12-23.41,20.8-46.83,32.08-70.2
				c11.41-23.71,23.5-47.39,36.19-70.97c4.76-8.75,9.56-17.45,14.45-26.16c24.92-44.34,52.23-88.38,82.08-131.78h609.96
				c29.12,58.06,54.55,117.07,76.72,176.42c24.7,66.17,45.28,132.72,62.44,198.89c7.29,28.13,13.94,56.18,19.98,84.09
				C1937.65,1849.55,1939.41,2117.53,1928.3,2302.95z"/>
		</g>
		<g>
			<path class="st3" d="M1900.72,2572.36H795.92c-8.32,0-15.44-5.97-16.89-14.16c-0.36-2-35.21-203.31-13.93-482.13
				c19.65-257.48,92.49-636.14,327.86-977.93c5.37-7.8,16.05-9.78,23.85-4.4c7.8,5.37,9.78,16.05,4.4,23.85
				c-231.04,335.49-302.57,707.82-321.9,961.08c-17.75,232.57,4.01,409.52,11.29,459.38h1075.64
				c8.08-49.62,33.61-226.64,29.81-459.46c-4.12-252.81-44.64-625.1-214.33-963.03c-4.25-8.47-0.83-18.78,7.63-23.03
				c8.45-4.26,18.77-0.83,23.02,7.63c172.73,344,213.88,722.1,217.99,978.72c4.44,277.82-32.43,477.5-32.8,479.49
				C1916.05,2566.49,1908.97,2572.36,1900.72,2572.36z M1900.72,2555.21h0.05H1900.72z"/>
		</g>
		<g class="st1">
			<path class="st3" d="M541,2546.58v-2.37C559.6,2545.01,541,2546.58,541,2546.58z"/>
		</g>
		<g>
			<g>
				<path class="st2" d="M2436.56,2186.83c0,0-121.03,577.37-160.5,590.22c-56.47,18.37-192.22-0.96-192.22-0.96
					s-472.33-63.96-742.02-63.96c-269.74,0-742.02,63.96-742.02,63.96s-135.8,19.33-192.27,0.96
					c-39.47-12.85-160.5-590.22-160.5-590.22c72-104.13,238.37-93.1,317.65,90.62c30.76-48.68,75.95-92.59,142.18-116.53
					c9.51-3.44,19.02-6.38,28.44-8.8c131.05-34.25,250.46,23.93,334.65,87.38c7.69,5.77,14.98,11.59,22.01,17.35
					c0.71,0.61,1.42,1.16,2.12,1.77c5.57,4.6,10.93,9.21,16.09,13.76c25.45,22.26,53.63,40.73,83.79,54.95
					c4.3,1.97,8.65,3.95,13.1,5.77c42.3,17.86,88.04,27.32,134.74,27.32c85.36,0,167.48-31.67,231.59-88.04
					c71.09-62.49,181.09-134.59,306.77-130.24c31.37,1.06,63.65,6.88,96.59,18.77c66.23,23.93,111.37,67.85,142.18,116.53
					C2198.25,2093.73,2364.56,2082.7,2436.56,2186.83z"/>
			</g>
			<g>
				<g class="st1">
					<path class="st3" d="M2394.16,2145.02c-38.8,169.28-93.85,390.31-118.07,398.19c-56.48,18.37-192.27-0.98-192.27-0.98
						s-472.29-127.92-742.02-127.92c-269.68,0-742.02,127.92-742.02,127.92s-135.75,19.35-192.23,0.98
						c-24.22-7.88-79.27-228.91-118.07-398.19c-13.55,8.92-25.83,20.27-36.45,33.81c24.77,115.48,120.32,551.14,154.53,562.29
						c56.48,18.41,192.23-0.94,192.23-0.94s472.34-63.96,742.02-63.96c269.73,0,742.02,63.96,742.02,63.96s135.8,19.35,192.27,0.94
						c34.21-11.15,129.76-446.8,154.53-562.29c2.04,2.59,4.03,5.24,5.94,8c0,0-121.03,577.36-160.47,590.22l0,0
						c39.44-12.85,160.47-590.22,160.47-590.22C2424.69,2169.69,2410.31,2155.65,2394.16,2145.02z"/>
				</g>
			</g>
			<g>
				<path class="st3" d="M1647.96,2208.6c17.64-13.8,36.56-26.02,56.28-37.06c5-2.62,9.92-5.44,15.02-7.89l15.36-7.34
					c10.48-4.4,20.98-8.87,31.86-12.43c43.15-15.08,90.13-21.58,136.6-17.35c23.16,2.23,46.27,6.5,68.41,13.74
					c11.11,3.35,22.21,7.36,32.92,12.25c5.44,2.24,10.62,5.08,15.94,7.61c5.13,2.9,10.43,5.51,15.41,8.7
					c40.49,24.47,73.98,59.46,98.62,98.84l-32.21,2.53c7.38-16.27,15.4-32.31,24.91-47.63c9.57-15.27,20.26-29.95,32.36-43.59
					c24.18-27.16,54.44-50.21,89.64-63.49c34.96-13.48,74.95-15.81,111.58-4.83c36.71,10.86,68.68,35.46,90.01,66.41l0.05,0.07
					c2.75,3.99,3.55,8.81,2.63,13.21c-27.03,126.83-55.38,253.13-87.45,378.96c-8.09,31.44-16.45,62.84-25.5,94.17
					c-4.53,15.66-9.25,31.31-14.32,46.94c-5.11,15.65-10.43,31.22-17.16,47.05c-1.7,3.97-3.49,7.94-5.6,12.04
					c-2.03,4.06-4.42,8.28-7.92,13.02c-1.08,1.31-1.94,2.45-3.29,3.84c-0.8,0.77-1.63,1.52-2.48,2.25
					c-0.84,0.71-1.53,1.37-3.28,2.36c-1.51,0.88-3.12,1.65-4.73,2.27c-0.82,0.27-1.2,0.34-1.82,0.52l-3.38,0.91
					c-4.51,1.22-9.06,2.45-13.37,3.04c-17.54,3.14-34.42,4.08-51.14,4.29c-33.44,0.45-66.22-1.88-98.89-5.18
					c-16.33-1.62-32.77-3.94-48.6-6.01l-48.04-6.12l-96.19-11.58c-64.17-7.43-128.4-14.27-192.67-20.43
					c-64.27-6.19-128.58-11.69-192.92-15.85c-64.31-4.14-128.7-7.41-192.78-7.56c-64.09,0.15-128.47,3.42-192.78,7.56
					c-64.33,4.15-128.65,9.66-192.91,15.85c-64.27,6.16-128.5,13-192.67,20.43l-96.2,11.58l-48.03,6.12
					c-15.83,2.07-32.27,4.39-48.6,6.01c-32.68,3.3-65.45,5.63-98.89,5.18c-16.72-0.21-33.6-1.15-51.14-4.29
					c-4.31-0.59-8.85-1.82-13.37-3.04l-3.38-0.91c-0.62-0.18-1-0.25-1.82-0.52c-1.61-0.63-3.21-1.39-4.72-2.27
					c-1.75-0.99-2.44-1.65-3.28-2.36c-0.85-0.73-1.67-1.48-2.47-2.25c-1.35-1.39-2.2-2.53-3.29-3.84c-3.5-4.74-5.89-8.96-7.92-13.02
					c-2.11-4.11-3.9-8.08-5.6-12.04c-6.73-15.82-12.05-31.39-17.16-47.05c-5.07-15.64-9.79-31.28-14.32-46.94
					c-9.05-31.33-17.41-62.72-25.5-94.17c-32.07-125.83-60.42-252.13-87.45-378.96c-1.01-4.74,0.06-9.45,2.6-13.16l0.08-0.12
					c21.34-30.95,53.3-55.55,90.01-66.41c36.63-11.03,76.64-8.61,111.53,4.98c35.11,13.37,65.3,36.44,89.31,63.67
					c12,13.68,22.59,28.39,32.05,43.67c9.4,15.33,17.31,31.38,24.58,47.64l-30.24-2.38c24.57-38.9,57.48-73.66,97.41-98.21
					c19.76-12.45,41.24-22.4,63.26-29.53c21.85-7.68,44.82-12.16,67.85-14.91c5.78-0.54,11.57-1.12,17.36-1.51l17.41-0.21
					c5.81-0.23,11.58,0.36,17.37,0.64c5.78,0.36,11.56,0.69,17.28,1.58c23.02,2.39,45.46,8.03,67.15,15.12
					c10.88,3.53,21.36,8.01,31.85,12.34l15.32,7.38c5.09,2.47,10.01,5.25,14.96,7.96c19.63,11.11,38.29,23.66,55.49,37.91
					c2.45,2.03,2.79,5.66,0.76,8.11c-1.71,2.06-4.55,2.63-6.86,1.55l-0.04-0.02c-39.66-18.44-79.35-35.04-120.37-44.91
					c-40.78-10.45-82.7-14.06-123.72-9.45c-20.48,2.35-40.86,6.3-60.5,12.97c-19.82,5.99-38.66,14.25-56.21,24.88
					c-17.58,10.55-33.7,23.46-48.3,37.99c-7.25,7.32-14.06,15.11-20.51,23.21c-6.35,8.19-12.34,16.68-17.96,25.45
					c-5.12,8-15.76,10.33-23.76,5.21c-2.93-1.88-5.11-4.5-6.43-7.46l-0.05-0.13c-6.68-14.91-13.89-29.55-22.36-43.35
					c-8.52-13.74-17.95-26.83-28.48-38.84c-21.07-23.91-46.9-43.33-75.77-54.32c-28.75-11.19-60.57-12.86-89.48-4.21
					c-28.96,8.6-54.23,27.89-71.67,53.07l2.68-13.27c26.91,126.26,55.25,252.52,87.1,377.46c8.03,31.21,16.32,62.34,25.22,93.17
					c4.46,15.41,9.08,30.74,13.99,45.87c4.92,15.09,10.11,30.15,16.05,44.1c1.48,3.47,3.02,6.87,4.62,9.95
					c1.55,3.19,3.3,5.95,4.57,7.73c0.23,0.22,0.57,0.73,0.63,0.78c-0.05-0.1-0.12-0.17-0.21-0.22c-0.1-0.03-0.06,0.03-0.86-0.57
					c-0.62-0.41-1.33-0.7-2.05-0.85l1.1,0.28l2.49,0.64c3.3,0.87,6.55,1.83,10.27,2.32c14.3,2.59,29.85,3.56,45.45,3.73
					c31.26,0.43,63.15-1.8,94.81-5c15.86-1.58,31.46-3.78,47.71-5.9l48.23-6.14l96.5-11.61c64.37-7.45,128.81-14.31,193.34-20.5
					c64.53-6.21,129.15-11.75,193.94-15.93c64.8-4.17,129.7-7.48,195.03-7.63c65.33,0.16,130.23,3.46,195.03,7.63
					c64.79,4.18,129.41,9.72,193.94,15.93c64.53,6.19,128.97,13.05,193.34,20.5l96.5,11.61l48.23,6.14
					c16.24,2.13,31.84,4.33,47.71,5.9c31.67,3.21,63.55,5.44,94.82,5c15.6-0.16,31.15-1.14,45.45-3.73
					c3.72-0.49,6.97-1.45,10.27-2.32l2.49-0.64l1.1-0.28c-0.72,0.15-1.42,0.45-2.04,0.85c-0.8,0.6-0.77,0.54-0.86,0.57
					c-0.09,0.05-0.17,0.13-0.21,0.22c0.06-0.06,0.4-0.56,0.63-0.78c1.27-1.78,3.02-4.54,4.57-7.73c1.59-3.08,3.14-6.48,4.62-9.95
					c5.94-13.95,11.14-29.01,16.05-44.1c4.91-15.13,9.53-30.47,13.99-45.87c8.91-30.83,17.2-61.96,25.22-93.17
					c31.86-124.95,60.2-251.2,87.1-377.46l2.68,13.27c-17.44-25.18-42.71-44.46-71.67-53.07c-28.91-8.69-60.75-6.94-89.42,4.36
					c-28.79,11.09-54.54,30.52-75.44,54.5c-10.43,12.05-19.76,25.16-28.17,38.92c-8.36,13.82-15.46,28.46-22.03,43.36l-0.05,0.12
					c-4.07,9.24-14.86,13.42-24.1,9.35c-3.45-1.52-6.19-3.97-8.06-6.94c-22.36-35.26-51.69-65.65-86.94-86.87
					c-4.28-2.84-8.89-5.14-13.33-7.75c-4.63-2.24-9.1-4.82-13.85-6.82c-9.32-4.4-18.99-8.03-28.97-11.16
					c-19.68-6.97-40.18-11.22-60.85-13.72c-20.68-2.77-41.7-2.71-62.62-1.08c-21,1.28-41.85,5.35-62.5,10.51
					c-41.41,10.35-81.29,27.81-120.26,47.89l-0.03,0.01c-2.82,1.45-6.28,0.34-7.73-2.47
					C1645.11,2213.26,1645.83,2210.27,1647.96,2208.6z"/>
			</g>
			<g>
				<g>
					<path class="st53" d="M2241.01,2777.04h35.08c41.19,0,78.53-24.16,95.29-61.76c52.51-117.59,148.25-375.95,58.57-533.62
						c-2.61-4.6-5.4-9.02-8.36-13.27c0,0-86.09-78.3-147.94,32.47C2215.88,2304.33,2094.62,2746.82,2241.01,2777.04z"/>
				</g>
				<g class="st20">
					<path class="st2" d="M2241.99,2274.61c1.55-2.48,3.1-4.82,4.6-6.99c76.05-110.78,181.91-32.47,181.91-32.47
						c3.63,4.25,7.08,8.67,10.26,13.27c10.62,15.17,19.11,31.28,25.75,48.13c-4.29-41.41-15-80.56-34.55-114.89
						c-2.61-4.6-5.4-9.02-8.36-13.27c0,0-86.09-78.3-147.94,32.47C2264.28,2217.62,2253.27,2243.24,2241.99,2274.61z"/>
				</g>
				<g>
					<path class="st3" d="M2464.04,2309.28c-0.94,0-1.89-0.08-2.84-0.24l-215.18-35.92c-9.35-1.56-15.65-10.4-14.1-19.74
						c1.56-9.34,10.46-15.66,19.74-14.1l215.18,35.92c9.35,1.56,15.65,10.4,14.1,19.74
						C2479.54,2303.34,2472.28,2309.28,2464.04,2309.28z"/>
				</g>
				<g>
					<path class="st3" d="M2462.67,2425.54c-0.76,0-1.53-0.05-2.3-0.15l-251.72-33.84c-9.39-1.26-15.98-9.9-14.72-19.29
						c1.26-9.39,9.87-15.95,19.29-14.72l251.72,33.84c9.39,1.26,15.98,9.9,14.72,19.29
						C2478.49,2419.28,2471.13,2425.54,2462.67,2425.54z"/>
				</g>
				<g>
					<path class="st3" d="M2440.47,2539.42c-0.69,0-1.4-0.04-2.1-0.13l-255.53-31.28c-9.4-1.15-16.09-9.71-14.94-19.11
						c1.15-9.4,9.68-16.11,19.11-14.94l255.53,31.28c9.4,1.15,16.09,9.71,14.94,19.11
						C2456.41,2533.04,2449.01,2539.42,2440.47,2539.42z"/>
				</g>
				<g>
					<path class="st3" d="M2399.94,2663.59c-0.52,0-1.04-0.02-1.56-0.07l-228.46-20.62c-9.43-0.85-16.39-9.19-15.54-18.63
						c0.85-9.43,9.22-16.31,18.63-15.54l228.46,20.62c9.43,0.85,16.39,9.19,15.54,18.63
						C2416.2,2656.9,2408.72,2663.59,2399.94,2663.59z"/>
				</g>
				<g class="st1">
					<path class="st3" d="M2241.01,2777.04h35.08c41.19,0,78.53-24.16,95.29-61.76c13.58-30.48,30.08-70.34,45.52-115.51
						c-21.06,34.95-63.84,57.11-110.82,57.11h-41.81c-59.5-10.31-81.89-68.66-82.77-145.15
						C2161.38,2640.82,2166.91,2761.73,2241.01,2777.04z"/>
				</g>
				<g>
					<path class="st3" d="M2276.09,2794.19h-35.08c-1.17,0-2.32-0.12-3.47-0.36c-28.65-5.91-50.3-24.47-64.34-55.16
						c-60.01-131.19,38.1-461.32,85.48-546.19c21.84-39.12,49.39-61.65,81.88-66.95c49.83-8.11,90.85,28.58,92.58,30.15
						c0.94,0.86,1.79,1.82,2.51,2.87c3.24,4.62,6.34,9.55,9.22,14.62c91.33,160.59,2.97,412.95-57.83,549.09
						C2367.57,2765.96,2324.01,2794.19,2276.09,2794.19z M2242.89,2759.88h33.21c34.39,0,65.65-20.25,79.63-51.59
						c46.82-104.84,146.32-365.19,59.33-518.15c-1.99-3.52-4.11-6.92-6.29-10.16c-6.17-5.02-33.48-25.47-62.87-20.55
						c-21.55,3.6-40.82,20.35-57.25,49.78c-49.57,88.77-135.21,403.74-84.23,515.19
						C2213.49,2744.26,2226.09,2755.89,2242.89,2759.88z"/>
				</g>
			</g>
			<g>
				<g>
					<path class="st53" d="M442.62,2777.04h-35.08c-41.19,0-78.53-24.16-95.29-61.76c-52.51-117.59-148.25-375.95-58.57-533.62
						c2.61-4.6,5.4-9.02,8.36-13.27c0,0,86.09-78.3,147.94,32.47C467.75,2304.33,589.01,2746.82,442.62,2777.04z"/>
				</g>
				<g class="st20">
					<path class="st2" d="M441.65,2274.61c-1.55-2.48-3.1-4.82-4.6-6.99c-76.05-110.78-181.91-32.47-181.91-32.47
						c-3.63,4.25-7.08,8.67-10.26,13.27c-10.62,15.17-19.11,31.28-25.75,48.13c4.29-41.41,15-80.56,34.55-114.89
						c2.61-4.6,5.4-9.02,8.36-13.27c0,0,86.09-78.3,147.94,32.47C419.35,2217.62,430.36,2243.24,441.65,2274.61z"/>
				</g>
				<g>
					<path class="st3" d="M219.59,2309.28c-8.23,0-15.5-5.95-16.9-14.34c-1.56-9.34,4.75-18.18,14.1-19.74l215.18-35.92
						c9.34-1.57,18.18,4.76,19.74,14.1c1.56,9.34-4.75,18.18-14.1,19.74l-215.18,35.92
						C221.48,2309.21,220.52,2309.28,219.59,2309.28z"/>
				</g>
				<g>
					<path class="st3" d="M220.96,2425.54c-8.46,0-15.82-6.25-16.98-14.87c-1.26-9.39,5.33-18.02,14.72-19.29l251.72-33.84
						c9.48-1.24,18.02,5.34,19.29,14.72c1.26,9.39-5.33,18.02-14.72,19.29l-251.72,33.84
						C222.49,2425.49,221.72,2425.54,220.96,2425.54z"/>
				</g>
				<g>
					<path class="st3" d="M243.17,2539.42c-8.54,0-15.94-6.37-17.01-15.07c-1.15-9.4,5.54-17.96,14.94-19.11l255.53-31.28
						c9.47-1.17,17.96,5.54,19.11,14.94c1.15,9.4-5.54,17.96-14.94,19.11l-255.53,31.28
						C244.56,2539.38,243.86,2539.42,243.17,2539.42z"/>
				</g>
				<g>
					<path class="st3" d="M283.69,2663.59c-8.78,0-16.26-6.7-17.07-15.61c-0.85-9.44,6.11-17.77,15.54-18.63l228.46-20.62
						c9.45-0.77,17.77,6.11,18.63,15.54c0.85,9.44-6.11,17.77-15.54,18.63l-228.46,20.62
						C284.72,2663.57,284.21,2663.59,283.69,2663.59z"/>
				</g>
				<g class="st1">
					<path class="st3" d="M442.62,2777.04h-35.08c-41.19,0-78.53-24.16-95.29-61.76c-13.58-30.48-30.08-70.34-45.52-115.51
						c21.06,34.95,63.84,57.11,110.82,57.11h41.81c59.5-10.31,81.89-68.66,82.77-145.15
						C522.25,2640.82,516.72,2761.73,442.62,2777.04z"/>
				</g>
				<g>
					<path class="st3" d="M442.62,2794.19h-35.08c-47.92,0-91.47-28.23-110.96-71.92c-60.8-136.14-149.15-388.51-57.82-549.09
						c2.86-5.02,5.96-9.95,9.21-14.6c0.73-1.05,1.58-2.01,2.52-2.88c1.72-1.57,42.81-38.3,92.58-30.15
						c32.49,5.3,60.04,27.83,81.88,66.95c47.38,84.87,145.48,415,85.47,546.19c-14.04,30.69-35.68,49.24-64.33,55.16
						C444.94,2794.07,443.79,2794.19,442.62,2794.19z M274.87,2179.99c-2.2,3.26-4.32,6.66-6.29,10.14
						c-87,152.96,12.5,413.32,59.32,518.16c13.98,31.35,45.23,51.6,79.63,51.6h33.21c16.8-4,29.39-15.62,38.48-35.48
						c50.99-111.45-34.66-426.41-84.22-515.19c-16.44-29.43-35.7-46.18-57.26-49.78C308.34,2154.5,281.14,2174.88,274.87,2179.99z"
						/>
				</g>
			</g>
			<g>
				<path class="st3" d="M838.59,2760.31c-2.01,0-4.05-0.47-5.96-1.47c-6.29-3.29-8.73-11.07-5.43-17.36
					c61.97-118.4,62.89-251.51,2.73-395.63c-45.29-108.52-110.13-182.75-110.78-183.49c-4.7-5.33-4.18-13.46,1.14-18.16
					c5.32-4.69,13.45-4.19,18.15,1.13c2.75,3.12,67.93,77.64,114.93,189.89c62.66,149.64,61.48,294.24-3.38,418.19
					C847.7,2757.8,843.22,2760.31,838.59,2760.31z"/>
			</g>
			<g>
				<path class="st3" d="M1851.05,2760.31c-4.63,0-9.11-2.51-11.41-6.9c-64.87-123.95-66.04-268.55-3.38-418.19
					c47-112.25,112.18-186.77,114.93-189.89c4.7-5.32,12.83-5.81,18.15-1.13c5.33,4.7,5.84,12.83,1.14,18.16
					c-0.65,0.74-65.48,74.97-110.78,183.49c-60.16,144.12-59.24,277.23,2.73,395.63c3.3,6.29,0.86,14.07-5.43,17.36
					C1855.1,2759.84,1853.06,2760.31,1851.05,2760.31z"/>
			</g>
		</g>
		<g class="st1">
			<path class="st3" d="M1098.09,2175.51c0,9.96-2.43,19.64-5.24,29.22l4.35-24.36L1098.09,2175.51z"/>
		</g>
		<g>
			<path class="st3" d="M584.05,2278.41c6.17,15.89,10.07,31.82,13.4,48.12c3.31,16.25,5.27,32.78,6.85,49.31
				c1.54,16.54,2.17,33.22,2.11,49.85c-0.28,16.66-1.44,33.35-4.22,49.76c-0.21,1.21-1.36,2.03-2.57,1.83
				c-0.94-0.16-1.65-0.89-1.82-1.78l-0.01-0.05c-3.08-16.21-6.08-32.11-9.62-47.9c-3.54-15.79-7.26-31.46-11.23-47.06
				c-3.95-15.61-8.29-31.09-12.08-46.68c-3.81-15.52-7.67-31.28-10.37-46.78l-0.07-0.38c-1.46-8.41,4.17-16.41,12.58-17.87
				C574.37,2267.49,581.44,2271.68,584.05,2278.41z"/>
		</g>
		<g>
			<path class="st3" d="M2132.48,2287.03c-2.7,15.5-6.56,31.26-10.37,46.78c-3.79,15.59-8.13,31.07-12.08,46.68
				c-3.97,15.6-7.69,31.27-11.23,47.06c-3.54,15.8-6.54,31.69-9.62,47.9l-0.01,0.04c-0.23,1.21-1.4,2-2.61,1.77
				c-0.94-0.18-1.63-0.93-1.78-1.82c-2.79-16.41-3.94-33.1-4.23-49.76c-0.06-16.64,0.57-33.31,2.11-49.85
				c1.58-16.54,3.54-33.06,6.85-49.31c3.33-16.3,7.23-32.23,13.4-48.12c3.09-7.96,12.04-11.9,20-8.81
				c6.98,2.71,10.88,9.94,9.64,17.04L2132.48,2287.03z"/>
		</g>
		<g>
			<g>
				<path class="st2" d="M274.27,1419.95c0,0,10.21,386.59,322.84,440.38c89.6,15.42,157.64-12.31,204.33-45.6
					c51.31-36.48,76.82-79.64,76.82-79.64l54.13-197.23l57.74-210.55c0,0-39.5,36.56-95.02,71.78
					c-25.85,16.39-55.14,32.44-85.56,44.42c-98.76,38.79-209.08,34.04-249.59-145.66L274.27,1419.95z"/>
			</g>
			<g class="st1">
				<path class="st3" d="M597.12,1860.34c187.96,32.36,281.13-125.25,281.13-125.25v0c6-23.21-20.92-40.99-39.72-26.1
					c-46.71,36.99-118.77,71.45-216.41,54.63c-220.86-38-338.13-263.72-112.6-367.49l-235.24,23.8
					C274.28,1419.94,284.48,1806.55,597.12,1860.34z"/>
			</g>
			<g>
				<path class="st3" d="M994.02,1331.53c-28.04,39.88-66.43,68.96-107.22,94.19c-20.59,12.37-42.23,23.29-64.94,32.16
					c-22.72,8.77-46.35,16.17-71.22,19.82c-24.72,3.8-51.05,3.86-76.52-3.16c-25.48-6.81-49.03-21.31-67.05-39.96
					c-9.13-9.25-17.02-19.48-23.76-30.18c-3.58-5.27-6.44-10.84-9.57-16.29c-2.71-5.6-5.74-11.11-8.08-16.83
					c-10.01-22.69-17.11-46.11-22.44-69.66l23.47,12L281,1435.72l10.41-16.23c0.34,8.56,1.15,18.13,2.11,27.25
					c0.95,9.23,2.18,18.47,3.57,27.68c2.79,18.43,6.38,36.74,10.7,54.87c8.61,36.25,20.45,71.68,35.68,105.38
					c15.56,33.48,34.14,65.62,57.6,93.65c23.29,28.07,50.48,52.83,81.48,71.67c30.97,18.84,65.21,32.14,100.88,39.93
					c35.58,8.27,71.94,10.07,107.19,3.84c17.58-3.11,34.78-8.24,51.24-15.19c16.5-6.92,31.92-16.27,46.39-26.82
					c29.23-21.03,54.7-45.86,85.1-69.55l0.42-0.33c2.59-2.02,6.33-1.55,8.35,1.04c1.16,1.5,1.49,3.4,1.07,5.11
					c-5.19,20.57-15.96,37.86-28.84,53.44c-13.02,15.45-28.39,28.98-45.28,40.29c-34.15,21.91-72.17,38.73-112.46,45.78
					c-40.17,7.17-81.74,4.92-120.57-4.11c-39.02-8.51-77.03-23.23-111.42-44.18c-34.44-20.93-64.58-48.38-90.05-79.12
					c-25.67-30.72-45.7-65.42-62.32-101.22c-16.28-36-28.77-73.47-37.83-111.63c-4.54-19.08-8.32-38.32-11.25-57.71
					c-1.46-9.7-2.76-19.42-3.77-29.21c-1.02-9.9-1.87-19.38-2.28-29.94c-0.28-7.16,3.96-13.46,10.17-16.13l0.24-0.1l285.69-122.1
					c8.71-3.72,18.79,0.32,22.51,9.03c0.4,0.94,0.73,2,0.96,2.97c4.95,21.91,11.51,43.3,20.33,63.28c2.06,5.09,4.7,9.79,7.04,14.69
					c2.7,4.63,5.14,9.48,8.14,13.85c5.67,9.03,12.14,17.36,19.39,24.69c14.39,14.8,31.97,25.56,51.6,30.87
					c19.6,5.4,40.98,5.67,62.22,2.28c21.24-3.54,42.4-10.22,62.81-19.06c20.42-8.86,40.3-19.44,59.9-30.67
					c9.84-5.57,19.53-11.46,29.25-17.36l28.97-18.21c19.43-12.09,39.14-24.22,59.91-35.3l0.23-0.12c2.85-1.52,6.39-0.44,7.91,2.4
					C995.47,1327.42,995.24,1329.78,994.02,1331.53z"/>
			</g>
			<g>
				<path class="st3" d="M538.3,1850.35c-9.28,0-18.95-1-29.01-3c-6.97-1.39-11.49-8.16-10.11-15.13
					c1.39-6.97,8.17-11.51,15.13-10.11c33.39,6.64,60,0.19,81.38-19.72c86.68-80.67,54.63-345.6,54.3-348.27
					c-0.88-7.05,4.12-13.48,11.17-14.37c7.07-0.86,13.48,4.12,14.36,11.17c1.43,11.42,33.92,280.76-62.3,370.31
					C592.4,1840.61,567.29,1850.35,538.3,1850.35z"/>
			</g>
			<g>
				<path class="st2" d="M614.18,1286.5c-37.64,193.31-231.39,184-285.08,173.42c-111.97-22.09-154.59-124.81-154.59-124.81
					l84.14-122.04l36.91-65.66l46.83-16.36c34.29-69.61,110.32-150.19,157.13-125.02C499.52,1006.04,646.64,1119.87,614.18,1286.5z"
					/>
			</g>
			<g class="st1">
				<path class="st3" d="M155.34,1274.09c2.63,59.59,83.08,110.22,250.26,83.21c58.89-9.51,105.77-53.07,103.14-112.67
					c-2.63-59.59-53.07-105.77-112.67-103.14C336.48,1144.12,152.7,1214.5,155.34,1274.09z"/>
			</g>
			<g>
				<path class="st2" d="M152.75,1080.97c46.08,42.34,86.14,73.27,86.14,73.27l129.42,121.24l74.55-207.75c0,0-1.33-41.2-6.95-95.57
					c-11.02-107.66-38.66-266.86-105.17-259.78c-119.63,12.75-26.31,325.16-26.31,325.16S101.67,790.68,28.16,866.58
					C-14.85,911,77.07,1011.38,152.75,1080.97z"/>
			</g>
			<g class="st1">
				<path class="st3" d="M152.75,1080.97c46.08,42.34,86.14,73.27,86.14,73.27l129.42,121.24l74.55-207.75c0,0-1.33-41.2-6.95-95.57
					c-31.03,26.83-88.96,75.61-108.73,104.02C293.14,1125.09,200.76,1069.48,152.75,1080.97z"/>
			</g>
			<g>
				<path class="st3" d="M368.32,1292.66c-4.31,0-8.52-1.62-11.73-4.64L227.75,1167.3C202.21,1147.52,6.91,993.4,0.19,900.19
					c-1.29-17.88,4.12-33.62,15.63-45.51c13.25-13.68,30.93-20.46,51.18-19.65c64.09,2.62,150.28,82.17,203.48,138.43
					c-16.29-74.98-32.47-189.68,4.42-245.12c12.77-19.19,31.45-30.61,54.03-33.01c16.27-1.74,32.04,3.61,45.63,15.43
					c73.77,64.17,84.47,326.67,85.44,356.39c0.07,2.16-0.27,4.32-1,6.35l-74.54,207.8c-1.95,5.44-6.51,9.53-12.12,10.88
					C371.01,1292.5,369.65,1292.66,368.32,1292.66z M63.59,869.26c-9.63,0-17.02,2.98-23.12,9.28c-2.97,3.07-6.84,8.4-6.06,19.18
					c4.81,66.78,156.81,198.01,214.97,242.93c0.43,0.33,0.85,0.69,1.25,1.06l110.37,103.42l64.61-180.12
					c-2.92-79.12-21.32-282.94-73.56-328.38c-8.52-7.41-15.21-7.65-19.48-7.2c-12.62,1.35-21.87,7.03-29.1,17.9
					c-38.37,57.64-0.43,225.51,17.42,285.33c2.33,7.82-1.17,16.21-8.38,20.05c-7.2,3.83-16.13,2.06-21.31-4.25
					C251,999.54,132.1,872.01,65.59,869.3C64.91,869.27,64.25,869.26,63.59,869.26z"/>
			</g>
			<g>
				<path class="st2" d="M150.88,1314.02c31.49,46.47,157.22,63.27,201.93,25.32c38.04-32.31-3.02-69.53-14.66-78.94
					c-1.81-1.5-2.93-2.27-2.93-2.27s47.28-16.81,53.88-57.54c0.43-2.64,0.69-5.37,0.73-8.26c0.88-46.7-125.26-81.41-181.33-69.83
					c-41.92,8.66-57.26,26.57-60.42,45.13c-3.38,19.77,7.07,40.3,13.93,51.22c3.16,4.98,5.53,7.93,5.53,7.93
					S125.64,1276.82,150.88,1314.02z"/>
			</g>
			<g class="st1">
				<path class="st3" d="M162,1218.85c34.1,15.61,102.25,41.71,176.15,41.55c-1.81-1.5-2.93-2.27-2.93-2.27s47.28-16.81,53.88-57.54
					c-43.8,11.64-165.18,35.47-241.02-32.96C144.69,1187.4,155.14,1207.92,162,1218.85z"/>
			</g>
			<g class="st1">
				<path class="st3" d="M150.88,1314.02c31.49,46.47,157.22,63.27,201.93,25.32c18.7-15.87,18.28-32.91,11.65-47.28
					c-2.02,2.43-4.42,4.88-7.25,7.3c-44.66,37.95-170.39,21.15-201.87-25.26c-3.27-4.82-5.45-9.84-6.66-14.97
					C142.06,1275.82,138.93,1296.35,150.88,1314.02z"/>
			</g>
			<g>
				<path class="st3" d="M276.88,1375.71c-10.87,0-22.22-0.78-33.88-2.37c-48.64-6.63-87.84-25.56-104.87-50.66
					c-24.17-35.63-1.93-77.6,10.54-96.18c-9.17-14.79-23.12-43.76-13.22-71.3c8.61-23.92,32.13-40,69.91-47.81
					c45.11-9.31,135.63,8.7,176.94,43.02c19.28,16.03,23.09,31.81,22.89,42.23c-0.69,35.24-24.54,57.2-43.12,69.01
					c10.24,11.15,21.13,27.21,21.91,45.68c0.48,11.33-2.82,28.12-21.23,43.73C343.9,1367.09,313.06,1375.71,276.88,1375.71z
					 M233.63,1135.64c-8.27,0-15.75,0.62-22.04,1.92l0,0c-18.23,3.76-41.21,11.68-47.14,28.01c-6.66,18.32,8.66,43.48,15.13,51.62
					c4.54,5.73,4.46,13.89-0.23,19.49c-0.32,0.39-34.1,41.63-15.73,68.71c11.83,17.44,44.63,32.13,83.55,37.43
					c40.67,5.54,78.23-0.44,95.66-15.22c10.77-9.14,10.48-16.5,10.39-18.92c-0.62-15.63-20.17-33.14-26.97-38.05
					c-4.65-3.35-7.07-9.01-6.25-14.68c0.81-5.67,4.68-10.43,10.07-12.35c0.39-0.14,43.65-16.25,44.34-51.57
					c0.13-6.63-6.33-13.42-11.78-17.94C334.64,1150.86,274.58,1135.64,233.63,1135.64z M208.48,1122.48h0.05H208.48z"/>
			</g>
			<g>
				<path class="st3" d="M307.26,1272.39c-80.33,0-142.82-32.71-145.74-34.26c-6.25-3.33-8.63-11.1-5.3-17.35
					c3.33-6.25,11.09-8.63,17.35-5.3c1.03,0.54,74.62,38.72,160.33,29.9c7.13-0.72,13.35,4.4,14.08,11.45s-4.4,13.35-11.45,14.08
					C326.57,1271.93,316.78,1272.39,307.26,1272.39z"/>
			</g>
			<g>
				<path class="st2" d="M499.51,1006.06c-62.14-33.43-175.64,119.34-174.92,185.62c0.55,50.6,62.25,90.1,130.91,22.48
					C525.07,1145.65,597.1,1058.55,499.51,1006.06z"/>
			</g>
			<g>
				<path class="st2" d="M174.51,1335.14c0,0,42.64,102.69,154.57,124.77c53.7,10.6,247.46,19.9,285.11-173.43
					c32.45-166.61-114.68-280.43-114.68-280.43c-62.14-33.43-175.64,119.34-174.92,185.62c0.55,50.6,76.9,75.93,135.87-15.75
					c0,0-29.57,82.21,43.61,134.19l-162.45,103.37l-127.14-19.04L174.51,1335.14z"/>
			</g>
			<g>
				<path class="st2" d="M469.41,1272.87l3.24-2.05c-2.59-1.85-4.96-3.65-7.22-5.57C466.63,1267.76,467.94,1270.32,469.41,1272.87z"
					/>
			</g>
			<g class="st1">
				<path class="st3" d="M457.18,1161.07c7.43-33.03-82.66,54.21-132.38,35.01c4.15,40.92,59.23,62.36,110.97,10.85
					C437.81,1180.51,457.18,1161.07,457.18,1161.07z"/>
			</g>
			<g class="st1">
				<path class="st3" d="M235.9,1397.65l-21.45-3.2c24.74,26.93,62.07,55.09,114.63,65.47c53.72,10.6,247.47,19.87,285.11-173.44
					c22.08-113.37-39.02-202.36-80.32-247.58c34.18,49.51,65.77,121.81,48.93,208.3c-37.63,193.31-231.38,184.04-285.11,173.44
					C274.11,1415.96,253.58,1407.77,235.9,1397.65z"/>
			</g>
			<g>
				<path class="st2" d="M174.55,1335.22c0.43,1.02,3.83,8.88,10.71,20.29l3.29,0.51L174.55,1335.22z"/>
			</g>
			<g>
				<path class="st2" d="M183.06,1355.17c1.83,1.99,3.72,4.03,5.72,6.02c-1.23-1.96-2.41-3.87-3.52-5.68L183.06,1355.17z"/>
			</g>
			<g>
				<path class="st3" d="M535.12,1412.82c10.26-17.84,20.32-32.54,29.49-48.08c9.03-15.53,16.68-31.76,23.04-48.87
					c6.4-17.06,10.77-35.37,12.71-53.51c1.91-18.23,1.63-36.64-0.83-54.82c-2.44-18.17-7.04-36.09-13.46-53.44
					c-6.48-17.33-14.83-34.04-24.5-50.02c-9.73-15.95-20.86-31.16-33.12-45.41c-6.12-7.13-12.5-14.05-19.15-20.65
					c-3.33-3.29-6.7-6.55-10.14-9.66c-3.34-3.06-7.11-6.32-10.14-8.74l2.37,1.54c-4.81-2.5-10.4-3.19-17.22-2.01
					c-6.76,1.17-14.21,4.26-21.44,8.36c-7.28,4.06-14.37,9.34-21.19,15.03c-6.85,5.67-13.4,11.97-19.66,18.61
					c-24.93,26.58-46.35,58.23-60.38,91.32c-3.37,8.26-6.23,16.63-7.99,24.7c-0.88,4.01-1.5,8-1.63,11.56
					c-0.35,3.79,0.11,6.55,0.74,9.61c1.3,5.95,4.73,10.94,9.31,14.78c4.73,3.69,10.78,6.19,17.55,6.71
					c13.57,1.34,28.96-4.55,42.08-14.55c13.33-9.91,24.7-23.67,34.47-38.64c5.18-7.94,15.81-10.18,23.75-5
					c6.63,4.32,9.29,12.46,6.96,19.65l-0.15,0.44c-0.52,1.62-1.37,4.63-1.92,7.15c-0.62,2.65-1.12,5.34-1.52,8.08
					c-0.88,5.45-1.24,10.97-1.42,16.46c-0.31,11,1.54,21.87,5.32,31.74c1.61,5.06,4.15,9.64,6.14,14.47
					c2.61,4.52,4.55,9.44,7.5,13.94c2.39,4.87,5.52,9.36,8.17,14.67c1.21,2.76,2.91,5.21,4.38,7.98c1.42,2.86,2.92,5.74,4.13,9.23
					l0.33,0.95c1.15,3.32-0.6,6.94-3.91,8.09c-1,0.35-2.06,0.43-3.04,0.28c-14.55-2.19-27.7-9.62-37.44-20.54
					c-5.21-5.19-9.11-11.51-12.86-17.87c-1.68-3.28-3.1-6.7-4.48-10.12c-1.53-3.37-2.45-6.94-3.36-10.49
					c-3.7-14.19-5.28-28.63-5.18-42.85c0.2-7.11,0.69-14.19,1.82-21.2c0.52-3.5,1.18-7.01,1.99-10.5c0.84-3.63,1.62-6.72,3.08-11.09
					l30.57,15.08c-11.39,17.42-24.92,34.19-42.76,47.54c-8.9,6.63-18.79,12.47-29.9,16.39c-11.08,3.86-23.31,6.11-35.93,4.85
					c-12.54-1.04-25.36-5.79-35.84-14.13c-10.38-8.4-18.25-20.45-21.18-33.49c-1.5-6.36-2.16-13.35-1.67-19.24
					c0.25-6.12,1.18-11.75,2.36-17.2c2.38-10.88,5.88-20.9,9.82-30.58c8.03-19.26,18.08-37.02,29.26-53.99
					c11.34-16.86,23.78-32.94,37.92-47.82c7.04-7.46,14.48-14.64,22.56-21.33c8.05-6.71,16.57-13.09,26.22-18.52
					c9.61-5.4,20.21-10.15,32.57-12.35c3.01-0.67,6.27-0.87,9.55-1.02c3.2-0.32,6.65,0.13,10.01,0.42
					c3.36,0.21,6.77,1.39,10.11,2.18c3.31,1.05,6.47,2.61,9.65,4.02c0.66,0.29,1.26,0.66,1.81,1.09l0.56,0.45
					c4.67,3.71,8.31,6.94,12.24,10.5c3.86,3.49,7.57,7.08,11.24,10.7c7.31,7.27,14.29,14.82,20.99,22.63
					c13.41,15.59,25.62,32.25,36.39,49.91c10.71,17.68,20.04,36.33,27.35,55.88c7.25,19.57,12.51,40,15.31,60.84
					c2.82,20.83,3.14,42.05,0.95,62.96c-2.32,20.96-6.06,41.42-12.33,61.64c-3.07,10.11-7.15,19.98-11.82,29.58
					c-4.85,9.53-10.6,18.65-17.1,27.18c-6.43,8.58-14.09,16.29-22.64,22.76c-8.56,6.45-17.98,11.78-28.47,14.81
					c-3.26,0.94-6.67-0.94-7.61-4.2c-0.48-1.66-0.23-3.36,0.57-4.75L535.12,1412.82z"/>
			</g>
			<g>
				<path class="st3" d="M188.73,1329.23c1.29,2.87,3.17,6.73,5.05,10.1c1.86,3.5,3.93,6.93,6.02,10.35
					c2.07,3.43,4.41,6.72,6.6,10.09l7.15,9.73c9.85,12.74,21.13,24.31,33.44,34.47c6,5.31,12.68,9.67,19.31,14.06
					c7.09,3.62,13.98,7.51,21.19,10.71c13.88,7.82,28.01,14.08,42.59,26.12l0.36,0.3c2.38,1.97,2.72,5.49,0.75,7.87
					c-0.83,1-1.93,1.64-3.1,1.9c-18.77,4.16-38.01,1.27-54.79-6.6c-16.81-7.97-31.67-19.25-45.95-30.65
					c-14.15-11.69-26.97-24.88-38.13-39.31l-8.1-11.02c-2.5-3.82-5.13-7.55-7.5-11.46c-2.39-3.9-4.74-7.83-6.92-11.9
					c-2.26-4.15-4.21-7.98-6.4-12.95c-3.43-7.78,0.09-16.86,7.86-20.29c7.75-3.42,16.8,0.07,20.26,7.79L188.73,1329.23z"/>
			</g>
		</g>
		<g>
			<g class="st1">
				<path class="st3" d="M1925.64,1432.6c-22.17,18.14-45.33,35.04-69.43,50.56c-131.69,84.86-290.87,129.55-459.19,117.93
					c-175.99-12.18-333.71-83.88-454.73-194.13c-30.02-27.32-57.81-56.99-82.98-88.77c39.97-32.72,90.95-52.4,146.32-52.4h4.93
					c4.76-8.75,9.56-17.45,14.45-26.16c24.92-44.34,52.23-88.38,82.08-131.78h609.96c29.12,58.06,54.55,117.07,76.72,176.42
					C1857.03,1311.37,1906.05,1365.88,1925.64,1432.6z"/>
			</g>
			<g>
				<circle class="st2" cx="1448.82" cy="769.97" r="752.77"/>
				<path class="st3" d="M1449.94,1525.87c-17.65,0-35.37-0.61-53.14-1.84c-201.42-13.9-385.37-105.4-517.96-257.65
					S680.87,919.36,694.76,717.95s105.4-385.36,257.65-517.96c152.25-132.6,347-198.01,548.43-184.07
					c201.42,13.89,385.37,105.4,517.97,257.64c132.59,152.25,197.96,347.02,184.07,548.44c-13.9,201.42-105.4,385.37-257.65,517.96
					C1806.42,1460.85,1632.26,1525.87,1449.94,1525.87z M1447.71,20.24c-180.84,0-353.57,64.47-491.25,184.39
					C805.45,336.15,714.69,518.6,700.91,718.37c-13.78,199.77,51.05,392.96,182.57,543.96
					c131.51,151.01,313.96,241.76,513.74,255.54c17.62,1.22,35.22,1.82,52.71,1.82c180.84,0.01,353.56-64.47,491.25-184.39
					c151.01-131.52,241.76-313.96,255.54-513.74c13.78-199.78-51.05-392.96-182.57-543.96C1882.64,126.6,1700.2,35.84,1500.42,22.06
					C1482.8,20.84,1465.2,20.24,1447.71,20.24z"/>
			</g>
			<g class="st1">
				<path class="st3" d="M2199.78,717.33c2.44,34.29,2.47,69.16,0.04,104.46c-28.67,414.74-388.07,727.77-802.82,699.19
					c-414.74-28.67-727.76-388.07-699.19-802.82c0.82-11.93,1.92-23.85,3.3-35.56c25.41,369.07,319.67,672.16,699.15,698.36
					C1803.08,1408.72,2153.63,1114.27,2199.78,717.33z"/>
			</g>
			<g>
				<path class="st3" d="M1449.97,1539.94c-17.98,0-36.03-0.62-54.14-1.87c-205.17-14.16-392.54-107.36-527.6-262.44
					c-135.07-155.09-201.66-353.48-187.5-558.65c14.16-205.16,107.36-392.54,262.44-527.6S1296.6-12.3,1501.81,1.87
					c205.17,14.15,392.54,107.36,527.61,262.44c135.06,155.08,201.65,353.48,187.5,558.65
					c-14.16,205.17-107.36,392.54-262.44,527.61C1813.08,1473.71,1635.67,1539.94,1449.97,1539.94z M1447.73,34.31
					c-177.45,0-346.93,63.26-482.04,180.93c-148.17,129.05-237.22,308.07-250.74,504.1c-13.53,196.02,50.09,385.58,179.14,533.75
					s308.07,237.22,504.1,250.74c17.29,1.2,34.56,1.79,51.72,1.79c177.45,0.01,346.93-63.26,482.03-180.93
					c148.17-129.05,237.23-308.07,250.75-504.1c13.53-196.03-50.1-385.58-179.15-533.75C1874.5,138.67,1695.47,49.62,1499.45,36.1
					C1482.16,34.91,1464.89,34.31,1447.73,34.31z"/>
			</g>
			<g>
				<path class="st3" d="M2196.07,840.9c-7.92,147.09-63.02,281.08-150.76,389.68c-65.78,81.41-325.43,216.12-636.35,202.18
					c-288.29-12.92-542.19-180.66-598.85-268.67c-75.58-117.38-115.98-256.52-108.06-403.61
					c20.95-389.25,364.07-532.62,776.65-510.41C1891.28,272.28,2217.03,451.65,2196.07,840.9z"/>
			</g>
			<g>
				<path class="st3" d="M1455.26,1450.95c-15.52,0-31.19-0.34-47.06-1.05c-297.87-13.35-553.24-184.47-612.51-276.52
					c-80.32-124.76-118.62-267.85-110.76-413.82c10.23-190.08,94.33-332.53,249.94-423.39c135.98-79.39,324.38-115.09,544.76-103.22
					c220.4,11.86,403.85,67.57,530.53,161.1c144.97,107.04,213.28,257.69,203.05,447.78l0,0c-7.86,145.97-61.3,284.13-154.55,399.54
					C1997.14,1317.49,1761.23,1450.95,1455.26,1450.95z M1398.09,265.02c-179.25,0-332.25,34.41-445.92,100.78
					c-145.02,84.67-223.41,217.78-232.98,395.61c-7.47,138.72,28.96,274.75,105.35,393.4c54.28,84.3,303.11,248.17,585.2,260.82
					c312.66,14.06,563.32-122.9,622.24-195.83c88.68-109.75,139.5-241.1,146.97-379.82l0,0c9.58-177.83-54.07-318.58-189.17-418.33
					c-121.26-89.54-298.31-142.94-511.99-154.44C1450.69,265.75,1424.11,265.02,1398.09,265.02z M2196.08,840.9h0.05H2196.08z"/>
			</g>
			<g class="st20">
				
					<ellipse transform="matrix(0.2309 -0.973 0.973 0.2309 750.4016 2499.2637)" class="st2" cx="1956.14" cy="774.96" rx="133.22" ry="96.53"/>
			</g>
			<g class="st20">
				
					<ellipse transform="matrix(0.3632 -0.9317 0.9317 0.3632 199.8846 2356.6543)" class="st2" cx="1823.87" cy="1032.11" rx="61.15" ry="52.47"/>
			</g>
			<g class="st1">
				<path class="st54" d="M2070.33,469.95c86.63,92.06,134.13,214.6,125.73,370.93c-7.92,147.12-63.04,281.1-150.73,389.7
					c-65.8,81.41-325.47,216.11-636.39,202.2c-109.78-4.89-214.54-32.27-305.37-69.19c382.55,8.94,698.92-156.51,780.49-257.48
					c111.37-137.82,181.29-307.91,191.31-494.56C2078.1,561.68,2076.23,514.5,2070.33,469.95z"/>
			</g>
			<g>
				<path class="st3" d="M2150.2,513.25c-4.08,0-8.17-1.45-11.43-4.37c-1.22-1.07-2.28-2.31-3.15-3.68
					c-117.42-184.92-357.18-300.26-657.82-316.45c-302.34-16.28-553.04,76-687.86,253.13c-0.28,0.38-0.58,0.74-0.9,1.09
					c-0.2,0.22-0.5,0.54-0.71,0.75c-6.7,6.7-17.56,6.7-24.26,0c-6.33-6.33-6.68-16.36-1.05-23.1
					c141.89-186.01,403.03-282.98,716.63-266.12c311.38,16.77,560.73,137.54,684.37,331.42c4.86,6.57,4.45,15.87-1.37,22
					C2159.27,511.46,2154.74,513.25,2150.2,513.25z M775.96,431.36l0.24,0.24L775.96,431.36z"/>
			</g>
			<g class="st20">
				<path class="st2" d="M857.35,1001.08c0,0-99.89-390.49,115.3-532.37s512.89-125.24,504.9-106.52c0,0-333.91,62.06-476.91,315.7
					C890.37,873.48,857.35,1001.08,857.35,1001.08z"/>
			</g>
		</g>
		<g>
			<path class="st52" d="M1431.72,1638.83c-197.21,0-401.65-101.55-591.22-293.66C698.25,1201,612.84,1054.62,611.99,1053.16
				c-4.75-8.2-1.95-18.69,6.25-23.44c8.19-4.74,18.69-1.96,23.44,6.25c0.83,1.43,84.43,144.58,223.8,285.66
				c127.48,129.05,329.2,282.89,566.24,282.89c237.3,0,448.4-154.05,583.71-283.28c147.86-141.21,240.01-284.47,240.92-285.9
				c5.09-7.99,15.69-10.32,23.69-5.23c7.98,5.1,10.33,15.7,5.23,23.68c-0.93,1.46-94.92,147.69-245.59,291.72
				C1838.97,1537.4,1628.74,1638.83,1431.72,1638.83z"/>
		</g>
		<g>
			<path class="st52" d="M1447.32,1780.63h-31.2c-9.35,0-16.93-7.58-16.93-16.93v-125.09c0-9.35,7.58-16.93,16.93-16.93h31.2
				c9.35,0,16.93,7.58,16.93,16.93v125.09C1464.26,1773.05,1456.68,1780.63,1447.32,1780.63z"/>
		</g>
		<g>
			<path class="st52" d="M1591.4,2918.84c-101.64,0-218.97-18.28-322.21-43.24c-65.75-15.9-84.54-23.5-82.36-43.21
				c2.19-19.83,27.32-21.37,53.93-23c23.58-1.45,55.46-2,92.38-2.65c100.29-1.76,251.84-4.41,298.28-31.02
				c1.03-0.59,1.98-1.15,2.84-1.68c-13.73-3.32-43.57-7.3-108.24-8.29c-65.98-1.01-150.3,1.23-231.83,3.38
				c-116.29,3.08-226.13,5.98-289.88,0.39c-33.75-2.96-52.04-14.55-54.34-34.43c-5.55-47.83,103.27-96.81,161.58-116.02
				c181.25-59.73,303.02-227.99,303.02-418.7v-419.75c0-9.47,7.68-17.15,17.15-17.15s17.15,7.68,17.15,17.15v419.75
				c0,205.55-131.25,386.91-326.6,451.27c-83.11,27.39-132.71,64.74-137.82,78.44c2.28,1.35,8.42,3.99,22.85,5.25
				c61.82,5.43,175.78,2.4,285.98-0.5c292.3-7.72,372.82-4.87,382.59,29.96c6.04,21.53-18.26,35.45-27.41,40.69
				c-54.08,30.99-198.6,33.52-314.73,35.56c-18.83,0.33-38.59,0.68-56.57,1.19c0.03,0,0.06,0.01,0.09,0.02
				c227.02,54.89,428.2,55.78,500.62,2.22c19.26-14.25,29.26-31.75,30.56-53.5c2.79-46.42-3.94-119.44-11.71-203.98
				c-14.72-159.96-33.05-359.03,1.61-502.73c2.22-9.21,11.49-14.89,20.7-12.65c9.21,2.22,14.87,11.48,12.65,20.7
				c-33.32,138.16-15.29,334.1-0.8,491.54c7.91,85.94,14.74,160.16,11.8,209.18c-1.92,32.07-16.87,58.66-44.41,79.03
				C1752.88,2905.63,1677.82,2918.84,1591.4,2918.84z"/>
		</g>
		<g>
			<g class="st1">
				<path class="st3" d="M1353.31,2049.87c5,7.66,9.85,15.18,14.52,22.56C1363.12,2065.05,1358.26,2057.48,1353.31,2049.87z"/>
			</g>
			<g class="st1">
				<path class="st3" d="M1935.59,2127.29c-32.3,2.96-67.76,4.94-103.27,4.64c-3.46,0-6.91-0.05-10.37-0.2
					c-3.65-0.05-7.36-0.15-10.96-0.3c-2.47,0-4.94-0.15-7.26-0.25c-2.91-0.15-5.78-0.35-8.64-0.49c-3.61-0.25-7.26-0.44-10.82-0.74
					h-0.3c-3.56-0.25-7.21-0.54-10.82-0.94c-2.32-0.25-4.74-0.49-7.06-0.74c-2.02-0.15-4-0.44-5.98-0.64
					c-3.06-0.35-6.17-0.79-9.19-1.19c-2.91-0.44-5.73-0.84-8.54-1.33c-0.59-0.05-1.14-0.1-1.68-0.3c-3.31-0.44-6.62-1.04-9.78-1.68
					c-3.31-0.54-6.52-1.19-9.68-1.88c-0.25-0.05-0.54-0.1-0.84-0.15c-1.78-0.4-3.56-0.79-5.29-1.23c-1.93-0.4-3.9-0.89-5.83-1.38
					h-0.05l-3.21-0.84v39.56c0,54.77-44.8,99.52-99.57,99.52h-543.43c-54.67,0-99.47-44.75-99.47-99.52v-31.61
					c-59.56,9.04-127.28,7.21-185.41,2.12c3.56-64.85,9.58-129.06,17.24-191.34c52.8,1.48,113.99,1.33,168.17-3.31v-71.02
					c0-54.72,44.8-99.42,99.47-99.42h543.43c32.3,0,61.05,15.46,79.27,39.41c12.74,16.69,20.3,37.54,20.3,60.01v66.53
					c11.51,1.73,23.66,3.11,36.15,4.25c56.55,5.14,121.25,5.09,176.17,3.36C1926,1998.38,1931.98,2062.54,1935.59,2127.29z"/>
			</g>
			<g>
				<path class="st2" d="M1071.55,2054.09c-73.97,29.95-188.45,23.68-266.49,14.24c-46.81-5.66-79.67-48.86-72.77-95.5l0,0
					c6.29-42.56,43.76-73.52,86.74-71.5c73,3.42,182.5,5.02,251.84-10.36L1071.55,2054.09z"/>
			</g>
			<g class="st1">
				<path class="st3" d="M1071.56,2054.09c-73.99,29.93-188.47,23.66-266.51,14.22c-46.82-5.68-79.66-48.85-72.75-95.52
					c1.58-10.72,5.14-20.64,10.27-29.53c12.64,22.08,35.21,38.13,62.48,41.44c77.94,9.43,192.18,15.71,266.16-14.13L1071.56,2054.09
					z"/>
			</g>
			<g>
				<path class="st3" d="M924.52,2093.28c-42.69,0-85.16-3.53-121.53-7.92c-27.24-3.3-51.41-17.13-68.05-38.95
					c-16.68-21.86-23.65-48.89-19.62-76.1c7.62-51.54,52.55-88.57,104.51-86.12c76.22,3.57,181.01,4.73,247.32-9.98
					c9.69-2.14,33.75-2.07,48.3,44.71c15.14,48.68,13.7,130.36-37.46,151.06C1034.94,2087.41,979.56,2093.28,924.52,2093.28z
					 M815.03,1918.38c-32.92,0-60.9,23.97-65.77,56.94c-2.66,17.98,1.94,35.83,12.96,50.27c10.99,14.4,26.93,23.53,44.9,25.7
					c79.24,9.59,188.34,15.09,258-13.11l0,0c18.8-7.61,22.99-38.12,23.92-50.89c2.89-39.57-9.49-72.63-16.61-79.13
					c-70.04,15.04-176.69,13.93-254.21,10.28C817.15,1918.4,816.08,1918.38,815.03,1918.38z"/>
			</g>
			<g>
				<path class="st2" d="M1903.83,2068.32c-36.61,4.44-81.31,8.17-126.05,7.75c-3.08,0-6.12-0.05-9.2-0.14
					c-3.22-0.05-6.49-0.14-9.71-0.28c-2.19-0.05-4.34-0.14-6.44-0.23c-2.57-0.14-5.09-0.28-7.61-0.42
					c-3.22-0.19-6.44-0.42-9.62-0.65h-0.23c-3.18-0.23-6.4-0.51-9.57-0.84c-2.1-0.19-4.2-0.42-6.26-0.65
					c-1.77-0.14-3.55-0.37-5.28-0.56c-2.76-0.33-5.51-0.7-8.17-1.07c-2.57-0.37-5.09-0.75-7.57-1.17c-0.51-0.05-1.03-0.09-1.49-0.23
					c-2.94-0.42-5.84-0.93-8.69-1.49c-2.9-0.51-5.74-1.07-8.55-1.68c-0.23-0.05-0.47-0.09-0.7-0.14c-1.59-0.37-3.18-0.7-4.72-1.07
					c-1.73-0.37-3.46-0.79-5.18-1.26h-0.05c-5.28-1.31-10.46-2.8-15.5-4.39c-2.71-0.84-5.42-1.77-8.08-2.71
					c-2.66-0.93-5.28-1.96-7.8-2.99l0.33-78.32l0.37-84.81c17.75,3.97,38.15,6.77,59.87,8.73c63.14,5.74,137.63,4.16,191.94,1.64
					c1.31-0.05,2.62-0.09,3.97-0.09c41.28,0,76.68,30.36,82.76,71.59C1983.51,2019.47,1950.63,2062.67,1903.83,2068.32z"/>
			</g>
			<g class="st1">
				<path class="st3" d="M1903.83,2068.32c-36.6,4.45-81.3,8.15-126.04,7.75c-3.06,0-6.12-0.05-9.19-0.15
					c-3.26-0.05-6.52-0.15-9.73-0.3c-2.17,0-4.35-0.1-6.42-0.2c-2.57-0.15-5.14-0.3-7.66-0.44c-3.21-0.2-6.42-0.39-9.58-0.64h-0.25
					c-3.16-0.25-6.42-0.49-9.58-0.84c-2.07-0.2-4.2-0.44-6.27-0.64c-1.78-0.15-3.56-0.4-5.29-0.59c-2.72-0.3-5.48-0.69-8.15-1.04
					c-2.57-0.39-5.09-0.74-7.56-1.19c-0.54-0.05-1.04-0.1-1.48-0.25c-2.96-0.4-5.88-0.94-8.69-1.48c-2.91-0.49-5.78-1.09-8.54-1.68
					c-0.25-0.05-0.49-0.1-0.74-0.15c-1.58-0.35-3.16-0.69-4.69-1.09c-1.73-0.35-3.46-0.79-5.19-1.23h-0.05
					c-5.29-1.33-10.47-2.82-15.51-4.4c-2.72-0.84-5.43-1.78-8.05-2.72c-2.67-0.94-5.29-1.98-7.8-2.96l0.3-78.33v-5.19
					c2.42,0.99,4.94,1.98,7.51,2.86c2.62,0.94,5.33,1.88,8.05,2.72c5.04,1.58,10.22,3.06,15.51,4.4h0.05
					c1.73,0.44,3.46,0.89,5.19,1.23c1.53,0.4,3.11,0.74,4.69,1.09c0.25,0.05,0.49,0.1,0.74,0.15c2.77,0.59,5.63,1.19,8.54,1.68
					c2.82,0.54,5.73,1.09,8.69,1.48c0.44,0.15,0.94,0.2,1.48,0.25c2.47,0.4,4.99,0.79,7.56,1.19c2.67,0.35,5.43,0.74,8.15,1.04
					c1.73,0.2,3.51,0.44,5.29,0.59c2.07,0.2,4.2,0.44,6.27,0.64c3.16,0.35,6.42,0.59,9.58,0.84h0.25c3.16,0.25,6.37,0.44,9.58,0.64
					c2.52,0.15,5.09,0.3,7.66,0.44c2.07,0.1,4.25,0.15,6.42,0.2c3.21,0.15,6.47,0.25,9.73,0.3c3.06,0.1,6.12,0.15,9.19,0.15
					c44.75,0.39,89.44-3.31,126.04-7.75c27.31-3.31,49.88-19.36,62.53-41.44c5.09,8.89,8.64,18.82,10.22,29.53
					C1983.49,2019.47,1950.65,2062.69,1903.83,2068.32z"/>
			</g>
			<g>
				<path class="st3" d="M1784.37,2093.28c-55.03,0-110.42-5.87-153.46-23.3l0,0c-51.16-20.71-52.6-102.38-37.46-151.06
					c14.55-46.79,38.62-46.85,48.3-44.71c66.3,14.71,171.09,13.54,247.32,9.98c51.99-2.52,96.89,34.59,104.5,86.13
					c4.02,27.21-2.94,54.23-19.62,76.09c-16.65,21.82-40.82,35.65-68.05,38.95C1869.53,2089.75,1827.05,2093.28,1784.37,2093.28z
					 M1636.47,1908.17c-7.11,6.5-19.49,39.57-16.61,79.13c0.93,12.76,5.12,43.28,23.92,50.89l0,0c69.66,28.2,178.76,22.7,258,13.11
					c17.97-2.17,33.92-11.3,44.9-25.7c11.02-14.44,15.62-32.29,12.96-50.27c-5.03-34.03-34.58-58.44-68.96-56.88
					C1813.17,1922.08,1706.51,1923.21,1636.47,1908.17z"/>
			</g>
			<g>
				<path class="st2" d="M1665.93,1837.05v261.42c0,48.5-39.7,88.21-88.21,88.21h-481.45c-48.44,0-88.14-39.7-88.14-88.21v-261.42
					c0-48.5,39.7-88.14,88.14-88.14h481.45c28.55,0,54.05,13.75,70.21,34.94C1659.22,1798.65,1665.93,1817.1,1665.93,1837.05z"/>
			</g>
			<g class="st1">
				<path class="st3" d="M1665.93,1837.05v261.44c0,48.49-39.68,88.17-88.17,88.17h-481.49c-48.47,0-88.13-39.66-88.13-88.13v-97.84
					c51.58,100.28,226.83,139.72,371.01,125.12c32.21-3.26,55.24-33.86,47.56-65.31c-2.29-9.39-3.52-19.33-3.52-29.64
					c0-57.02,37.78-103.26,84.39-103.26c35.2,0,80.94,30,86.27,87.15c1.3,13.98,20.82,16.31,24.96,2.89
					c21.32-69.08,32.59-187.84,29.15-233.79C1659.21,1798.66,1665.93,1817.11,1665.93,1837.05z"/>
			</g>
			<g>
				<path class="st3" d="M1584.97,2203.81h-495.88c-54.1,0-98.11-44.01-98.11-98.1v-275.87c0-54.1,44.01-98.11,98.11-98.11h495.88
					c54.09,0,98.1,44.01,98.1,98.11v275.87C1683.07,2159.81,1639.06,2203.81,1584.97,2203.81z M1089.09,1766.04
					c-35.18,0-63.8,28.62-63.8,63.8v275.87c0,35.18,28.62,63.79,63.8,63.79h495.88c35.18,0,63.79-28.62,63.79-63.79v-275.87
					c0-35.18-28.62-63.8-63.79-63.8H1089.09z"/>
			</g>
			<g>
				<circle class="st19" cx="1507.59" cy="1967.78" r="76.03"/>
			</g>
			<g>
				<path class="st2" d="M1583.63,1967.8c0,4.13-0.31,8.17-0.99,12.11c-5.79-36.25-37.19-63.93-75.05-63.93
					c-37.86,0-69.27,27.68-75.05,63.93c-0.67-3.95-0.99-7.99-0.99-12.11c0-41.99,34.05-76.04,76.04-76.04
					C1549.58,1891.76,1583.63,1925.81,1583.63,1967.8z"/>
			</g>
			<g class="st1">
				<path class="st3" d="M1583.59,1967.76c0,41.98-34.03,76.02-76.02,76.02s-76.01-34.03-76.01-76.02c0-9.71,1.83-18.97,5.22-27.51
					c10.95,28.36,38.53,48.44,70.8,48.44c32.27,0,59.85-20.08,70.8-48.44C1581.77,1948.79,1583.59,1958.05,1583.59,1967.76z"/>
			</g>
			<g>
				<path class="st3" d="M1507.59,2056.67c-49.02,0-88.9-39.88-88.9-88.9c0-49.01,39.88-88.89,88.9-88.89
					c49.01,0,88.89,39.88,88.89,88.89C1596.48,2016.79,1556.6,2056.67,1507.59,2056.67z M1507.59,1904.62
					c-34.83,0-63.16,28.33-63.16,63.16s28.33,63.16,63.16,63.16s63.16-28.33,63.16-63.16S1542.42,1904.62,1507.59,1904.62z"/>
			</g>
			<g>
				<path class="st3" d="M1292.13,2203.81c-9.47,0-17.15-7.68-17.15-17.15v-141.75c0-22.61-10.78-44.23-28.85-57.82l-24.92-18.76
					c-26.63-20.04-42.52-51.9-42.52-85.23v-134.2c0-9.47,7.68-17.15,17.15-17.15s17.15,7.68,17.15,17.15v134.2
					c0,22.61,10.78,44.23,28.85,57.82l24.92,18.76c26.63,20.04,42.52,51.9,42.52,85.23v141.75
					C1309.29,2196.13,1301.61,2203.81,1292.13,2203.81z"/>
			</g>
		</g>
		<g>
			<g>
				<path class="st19" d="M2193.92,1543.58l-42.41,166.47l-11.15,43.87l-78.78,309.06l-2.83,11.19c-0.69,2.66-1.5,5.19-2.44,7.68
					c-11.75,30.15-44.51,47.56-76.72,39.37l-266.9-68.01c-34.82-8.88-55.92-44.34-47-79.16l135.17-530.59
					c8.88-34.82,44.3-55.92,79.16-47l266.9,67.97C2181.74,1473.3,2202.79,1508.72,2193.92,1543.58z"/>
			</g>
			<g>
				<path class="st2" d="M2064.27,2052.54l-5.52,21.65c-8.88,34.84-44.33,55.87-79.17,46.99l-266.89-67.99
					c-34.84-8.88-55.91-44.31-47.04-79.15l5.52-21.65c-8.88,34.84,12.2,70.27,47.04,79.15l266.89,67.99
					C2019.94,2108.41,2055.4,2087.38,2064.27,2052.54z"/>
			</g>
			<g>
				<path class="st2" d="M2193.94,1543.57l-135.18,530.62c-5.78,22.68-22.83,39.54-43.64,46.01c17.53-7.42,31.52-22.67,36.59-42.58
					l131.19-514.97c8.61-33.81-11.81-68.2-45.62-76.82l-259.07-66c-33.81-8.61-68.2,11.81-76.82,45.62l-131.19,514.97
					c-5.09,19.98-0.04,40.12,11.91,55.05c-15.28-15.67-22.25-38.68-16.45-61.44l135.18-530.62c8.88-34.84,44.33-55.87,79.17-46.99
					l266.89,67.99C2181.74,1473.3,2202.81,1508.73,2193.94,1543.57z"/>
			</g>
			<g>
				<path class="st3" d="M1992.15,2139.3c-7.24,0-14.52-0.91-21.71-2.74l0,0l-257.08-65.49c-46.66-11.89-74.95-59.52-63.06-106.17
					l132.67-520.77c5.76-22.6,19.97-41.61,40.02-53.52c20.06-11.91,43.56-15.29,66.15-9.54l257.08,65.5
					c22.6,5.76,41.61,19.97,53.52,40.02s15.3,43.54,9.54,66.14l-132.67,520.77c-5.76,22.6-19.97,41.61-40.02,53.52
					C2022.92,2135.14,2007.65,2139.3,1992.15,2139.3z M1978.91,2103.32c28.35,7.2,57.24-9.97,64.46-38.29l132.67-520.77
					c3.5-13.72,1.44-27.98-5.8-40.16c-7.23-12.18-18.77-20.81-32.49-24.3l-257.08-65.5c-13.73-3.49-27.98-1.44-40.16,5.79
					c-12.18,7.23-20.81,18.77-24.3,32.49l-132.67,520.77c-7.21,28.33,9.96,57.24,38.29,64.46L1978.91,2103.32z"/>
			</g>
			<g>
				<g>
					<circle class="st3" cx="1882.73" cy="1500.32" r="42.68"/>
				</g>
				<g>
					<circle class="st55" cx="1882.62" cy="1500.75" r="15.86"/>
				</g>
				<g>
					<path class="st56" d="M1882.72,1549.44c-4,0-8.06-0.49-12.11-1.52c-12.71-3.24-23.41-11.24-30.11-22.52s-8.6-24.5-5.37-37.21
						l0,0c3.24-12.71,11.24-23.41,22.51-30.11c11.29-6.7,24.51-8.6,37.22-5.37c12.71,3.24,23.4,11.24,30.1,22.51
						c6.7,11.28,8.61,24.5,5.37,37.21C1924.68,1534.64,1904.64,1549.44,1882.72,1549.44z M1882.67,1464.06
						c-6.43,0-12.77,1.73-18.44,5.1c-8.32,4.94-14.22,12.83-16.61,22.21l0,0c-2.39,9.38-0.99,19.13,3.96,27.45
						c4.95,8.33,12.83,14.22,22.21,16.61c19.39,4.95,39.13-6.81,44.06-26.17c2.39-9.38,0.99-19.13-3.96-27.45
						c-4.94-8.32-12.83-14.22-22.21-16.61C1888.69,1464.44,1885.67,1464.06,1882.67,1464.06z M1841.37,1489.78h0.05H1841.37z"/>
				</g>
			</g>
			<g>
				<path class="st2" d="M1964.11,1795.83c-9.38,10.12-23.88,14.92-38.21,11.27c-20.85-5.31-33.46-26.53-28.14-47.39
					c5.32-20.87,26.54-33.47,47.39-28.16c14.33,3.65,24.75,14.8,28.15,28.18c-0.19-0.07-0.39-0.12-0.58-0.17
					c-9.97-2.54-20.12,3.49-22.66,13.47c-2.54,9.97,3.49,20.12,13.46,22.66C1963.69,1795.74,1963.91,1795.79,1964.11,1795.83z"/>
			</g>
			<g>
				<path class="st3" d="M2058.89,2086.5c-1.05,0-2.12-0.13-3.18-0.4l-393.07-100.14c-6.89-1.75-11.04-8.75-9.29-15.64
					c1.75-6.88,8.75-11.07,15.64-9.29l393.07,100.14c6.89,1.75,11.04,8.75,9.29,15.64
					C2069.87,2082.62,2064.64,2086.5,2058.89,2086.5z"/>
			</g>
		</g>
		<g class="st1">
			<path class="st3" d="M2151.51,1710.05l-11.15,43.87l-78.78,309.06c-21.61-83.06-29.89-87.65-100.39-158.54
				c-76.59-77.02-52.92-203.31-0.6-264.33C2006.35,1586.77,2089.63,1632.27,2151.51,1710.05z"/>
		</g>
		<g>
			<path class="st2" d="M2071.66,2023.56c0,0,104.57-36.21,147.51-139.28c64.14-153.95-10.08-302.75-146.41-320.6
				c-102.54-13.43-182.8,179.32-111.55,261.34C2022.01,1895.01,2090.72,1929.21,2071.66,2023.56z"/>
		</g>
		<g class="st1">
			<path class="st3" d="M2230.46,1852.55c-3.09,10.55-6.86,21.14-11.28,31.73c-42.97,103.05-147.52,139.28-147.52,139.28
				c19.04-94.34-49.66-128.56-110.47-198.55c-45.07-51.89-29.5-148.07,13.98-208.37c-12.82,49.01-24.48,125.71,4.73,159.33
				c37.23,42.84,77.66,66.41,107.93,93.7c42.35,38.18,108.44,31.69,141.15-15.02C2229.48,1853.97,2229.97,1853.27,2230.46,1852.55z"
				/>
		</g>
		<g>
			<path class="st3" d="M2071.66,2040.71c-4.09,0-8.12-1.46-11.29-4.24c-4.63-4.05-6.74-10.28-5.52-16.31
				c12.86-63.65-19.3-95.39-63.81-139.32c-13.97-13.79-28.41-28.04-42.77-44.57c-47.76-54.98-34.78-144.7-2.5-204.8
				c31.96-59.51,80.26-91.25,129.22-84.79c65.57,8.58,119.91,44.94,153,102.35c39.76,68.97,42.31,157.12,7.01,241.85
				c-45.38,108.92-153.16,147.31-157.73,148.9C2075.44,2040.41,2073.54,2040.71,2071.66,2040.71z M2062.68,1580.18
				c-36.99,0-68.69,34.01-86.69,67.52c-27.74,51.65-37.28,125.27-1.83,166.07c13.5,15.54,27.46,29.32,40.97,42.65
				c39.85,39.34,77.8,76.8,76.89,138.84c31.82-17.16,84.73-53.8,111.3-117.58c31.16-74.79,29.31-151.88-5.06-211.52
				c-27.64-47.95-73-78.31-127.73-85.47C2067.89,1580.34,2065.27,1580.18,2062.68,1580.18z"/>
		</g>
	</g>
</g>
</svg>
